<mxfile host="app.diagrams.net" agent="Mozilla/5.0 (Windows NT 10.0; Win64; x64) AppleWebKit/537.36 (KHTML, like Gecko) Chrome/141.0.0.0 Safari/537.36" version="28.2.8">
  <diagram name="Page-1" id="3k7seTBTtkUgTc0MP4NN">
    <mxGraphModel dx="1042" dy="527" grid="1" gridSize="10" guides="1" tooltips="1" connect="1" arrows="1" fold="1" page="1" pageScale="1" pageWidth="827" pageHeight="1169" math="0" shadow="0">
      <root>
        <mxCell id="0" />
        <mxCell id="1" parent="0" />
        <mxCell id="MVucZP5u_rI3VgIbi9NU-1" value="&lt;b&gt;&lt;font style=&quot;font-size: 25px;&quot;&gt;Data Architecture&lt;/font&gt;&lt;/b&gt;" style="text;html=1;whiteSpace=wrap;strokeColor=none;fillColor=none;align=left;verticalAlign=middle;rounded=0;" vertex="1" parent="1">
          <mxGeometry x="10" y="40" width="350" height="30" as="geometry" />
        </mxCell>
        <mxCell id="MVucZP5u_rI3VgIbi9NU-2" value="" style="rounded=0;whiteSpace=wrap;html=1;fillColor=none;dashed=1;strokeColor=#3333FF;" vertex="1" parent="1">
          <mxGeometry x="70" y="130" width="150" height="630" as="geometry" />
        </mxCell>
        <mxCell id="MVucZP5u_rI3VgIbi9NU-3" value="&lt;span style=&quot;color: rgba(0, 0, 0, 0); font-family: monospace; font-size: 0px; text-align: start; text-wrap-mode: nowrap;&quot;&gt;%3CmxGraphModel%3E%3Croot%3E%3CmxCell%20id%3D%220%22%2F%3E%3CmxCell%20id%3D%221%22%20parent%3D%220%22%2F%3E%3CmxCell%20id%3D%222%22%20value%3D%22Bronze%20Layer%22%20style%3D%22rounded%3D0%3BwhiteSpace%3Dwrap%3Bhtml%3D1%3BfillColor%3D%23ffe6cc%3BstrokeColor%3D%23d79b00%3B%22%20vertex%3D%221%22%20parent%3D%221%22%3E%3CmxGeometry%20x%3D%22300%22%20y%3D%22160%22%20width%3D%22110%22%20height%3D%2220%22%20as%3D%22geometry%22%2F%3E%3C%2FmxCell%3E%3C%2Froot%3E%3C%2FmxGraphModel%3E&lt;/span&gt;" style="rounded=0;whiteSpace=wrap;html=1;fillColor=none;dashed=1;strokeColor=#3333FF;" vertex="1" parent="1">
          <mxGeometry x="280" y="130" width="550" height="630" as="geometry" />
        </mxCell>
        <mxCell id="MVucZP5u_rI3VgIbi9NU-4" value="" style="rounded=0;whiteSpace=wrap;html=1;fillColor=none;dashed=1;strokeColor=#3333FF;" vertex="1" parent="1">
          <mxGeometry x="880" y="130" width="150" height="630" as="geometry" />
        </mxCell>
        <mxCell id="MVucZP5u_rI3VgIbi9NU-5" value="Source" style="text;html=1;whiteSpace=wrap;strokeColor=default;fillColor=default;align=center;verticalAlign=middle;rounded=0;strokeWidth=5;" vertex="1" parent="1">
          <mxGeometry x="105" y="120" width="80" height="30" as="geometry" />
        </mxCell>
        <mxCell id="MVucZP5u_rI3VgIbi9NU-6" value="Data WareHouse" style="text;html=1;whiteSpace=wrap;strokeColor=default;fillColor=default;align=center;verticalAlign=middle;rounded=0;strokeWidth=5;" vertex="1" parent="1">
          <mxGeometry x="410" y="110" width="130" height="30" as="geometry" />
        </mxCell>
        <mxCell id="MVucZP5u_rI3VgIbi9NU-7" value="Cnsume" style="text;html=1;whiteSpace=wrap;strokeColor=default;fillColor=default;align=center;verticalAlign=middle;rounded=0;strokeWidth=5;" vertex="1" parent="1">
          <mxGeometry x="775" y="120" width="80" height="30" as="geometry" />
        </mxCell>
        <mxCell id="MVucZP5u_rI3VgIbi9NU-8" value="Bronze Layer" style="rounded=0;whiteSpace=wrap;html=1;fillColor=#ffe6cc;strokeColor=#d79b00;" vertex="1" parent="1">
          <mxGeometry x="335" y="180" width="110" height="20" as="geometry" />
        </mxCell>
        <mxCell id="MVucZP5u_rI3VgIbi9NU-9" value="Silver Layer" style="rounded=0;whiteSpace=wrap;html=1;fillColor=#f5f5f5;strokeColor=#666666;fontColor=#333333;" vertex="1" parent="1">
          <mxGeometry x="500" y="180" width="110" height="20" as="geometry" />
        </mxCell>
        <mxCell id="MVucZP5u_rI3VgIbi9NU-10" value="Gold Layer" style="rounded=0;whiteSpace=wrap;html=1;fillColor=#fff2cc;strokeColor=#d6b656;" vertex="1" parent="1">
          <mxGeometry x="670" y="180" width="110" height="20" as="geometry" />
        </mxCell>
        <mxCell id="MVucZP5u_rI3VgIbi9NU-11" value="" style="rounded=0;whiteSpace=wrap;html=1;fillColor=none;strokeColor=#d79b00;" vertex="1" parent="1">
          <mxGeometry x="300" y="200" width="160" height="500" as="geometry" />
        </mxCell>
        <mxCell id="MVucZP5u_rI3VgIbi9NU-13" value="" style="rounded=0;whiteSpace=wrap;html=1;fillColor=none;strokeColor=#666666;fontColor=#333333;" vertex="1" parent="1">
          <mxGeometry x="480" y="200" width="150" height="500" as="geometry" />
        </mxCell>
        <mxCell id="MVucZP5u_rI3VgIbi9NU-14" value="" style="rounded=0;whiteSpace=wrap;html=1;fillColor=none;strokeColor=#d6b656;" vertex="1" parent="1">
          <mxGeometry x="650" y="200" width="150" height="500" as="geometry" />
        </mxCell>
        <mxCell id="MVucZP5u_rI3VgIbi9NU-15" value="CRM" style="image;aspect=fixed;html=1;points=[];align=center;fontSize=12;image=img/lib/azure2/general/Folder_Blank.svg;" vertex="1" parent="1">
          <mxGeometry x="105" y="200" width="69" height="56.00000000000001" as="geometry" />
        </mxCell>
        <mxCell id="MVucZP5u_rI3VgIbi9NU-16" value="CSV" style="whiteSpace=wrap;html=1;shape=mxgraph.basic.document" vertex="1" parent="1">
          <mxGeometry x="145" y="190" width="40" height="40" as="geometry" />
        </mxCell>
        <mxCell id="MVucZP5u_rI3VgIbi9NU-23" value="ERP" style="image;aspect=fixed;html=1;points=[];align=center;fontSize=12;image=img/lib/azure2/general/Folder_Blank.svg;" vertex="1" parent="1">
          <mxGeometry x="105" y="330" width="69" height="56.00000000000001" as="geometry" />
        </mxCell>
        <mxCell id="MVucZP5u_rI3VgIbi9NU-24" value="CSV" style="whiteSpace=wrap;html=1;shape=mxgraph.basic.document" vertex="1" parent="1">
          <mxGeometry x="145" y="320" width="40" height="40" as="geometry" />
        </mxCell>
        <mxCell id="MVucZP5u_rI3VgIbi9NU-28" value="Object Type: CSV file&lt;div&gt;Interface:File in Folder&lt;/div&gt;" style="text;html=1;whiteSpace=wrap;strokeColor=none;fillColor=none;align=left;verticalAlign=middle;rounded=0;" vertex="1" parent="1">
          <mxGeometry x="85" y="430" width="115" height="70" as="geometry" />
        </mxCell>
        <mxCell id="MVucZP5u_rI3VgIbi9NU-30" value="" style="shape=datastore;whiteSpace=wrap;html=1;fillColor=#ffe6cc;strokeColor=#d79b00;" vertex="1" parent="1">
          <mxGeometry x="355" y="230" width="50" height="60" as="geometry" />
        </mxCell>
        <mxCell id="MVucZP5u_rI3VgIbi9NU-31" value="" style="shape=datastore;whiteSpace=wrap;html=1;fillColor=#f5f5f5;fontColor=#333333;strokeColor=#666666;" vertex="1" parent="1">
          <mxGeometry x="530" y="230" width="50" height="60" as="geometry" />
        </mxCell>
        <mxCell id="MVucZP5u_rI3VgIbi9NU-32" value="" style="shape=datastore;whiteSpace=wrap;html=1;fillColor=#fff2cc;strokeColor=#d6b656;" vertex="1" parent="1">
          <mxGeometry x="700" y="230" width="50" height="60" as="geometry" />
        </mxCell>
        <mxCell id="MVucZP5u_rI3VgIbi9NU-34" value="Row Data" style="text;html=1;whiteSpace=wrap;strokeColor=none;fillColor=none;align=center;verticalAlign=middle;rounded=0;" vertex="1" parent="1">
          <mxGeometry x="335" y="305" width="90" height="20" as="geometry" />
        </mxCell>
        <mxCell id="MVucZP5u_rI3VgIbi9NU-36" value="Cleaned ,standardized Data" style="text;html=1;whiteSpace=wrap;strokeColor=none;fillColor=none;align=center;verticalAlign=middle;rounded=0;" vertex="1" parent="1">
          <mxGeometry x="500" y="290" width="110" height="40" as="geometry" />
        </mxCell>
        <mxCell id="MVucZP5u_rI3VgIbi9NU-37" value="Busines-Ready Data" style="text;html=1;whiteSpace=wrap;strokeColor=none;fillColor=none;align=center;verticalAlign=middle;rounded=0;" vertex="1" parent="1">
          <mxGeometry x="670" y="290" width="110" height="40" as="geometry" />
        </mxCell>
        <mxCell id="MVucZP5u_rI3VgIbi9NU-38" value="" style="line;strokeWidth=2;html=1;" vertex="1" parent="1">
          <mxGeometry x="325" y="325" width="110" height="10" as="geometry" />
        </mxCell>
        <mxCell id="MVucZP5u_rI3VgIbi9NU-39" value="" style="line;strokeWidth=2;html=1;" vertex="1" parent="1">
          <mxGeometry x="500" y="330" width="110" height="10" as="geometry" />
        </mxCell>
        <mxCell id="MVucZP5u_rI3VgIbi9NU-40" value="" style="line;strokeWidth=2;html=1;" vertex="1" parent="1">
          <mxGeometry x="665" y="335" width="110" height="10" as="geometry" />
        </mxCell>
        <mxCell id="MVucZP5u_rI3VgIbi9NU-41" value="Object Type: Table&lt;div&gt;&lt;br&gt;&lt;div&gt;Load:&lt;/div&gt;&lt;div&gt;&lt;ul&gt;&lt;li&gt;Batch Processing&lt;/li&gt;&lt;li&gt;Full Load&lt;/li&gt;&lt;li&gt;Truncet &amp;amp; Insert&lt;/li&gt;&lt;/ul&gt;&lt;div&gt;No Transformation&lt;/div&gt;&lt;/div&gt;&lt;/div&gt;&lt;div&gt;Data Model :None&lt;/div&gt;" style="text;html=1;whiteSpace=wrap;strokeColor=none;fillColor=none;align=left;verticalAlign=middle;rounded=0;" vertex="1" parent="1">
          <mxGeometry x="307.5" y="335" width="142.5" height="220" as="geometry" />
        </mxCell>
        <mxCell id="MVucZP5u_rI3VgIbi9NU-43" value="Object Type: Table&lt;div&gt;&lt;br&gt;&lt;div&gt;Load:&lt;/div&gt;&lt;div&gt;&lt;ul&gt;&lt;li&gt;Batch Processing&lt;/li&gt;&lt;li&gt;Full Load&lt;/li&gt;&lt;li&gt;Truncet &amp;amp; Insert&lt;/li&gt;&lt;/ul&gt;&lt;div&gt;Transformation:&lt;/div&gt;&lt;/div&gt;&lt;/div&gt;&lt;div&gt;&lt;ul&gt;&lt;li&gt;Data Cleaning&lt;/li&gt;&lt;li&gt;Data stardarization&amp;nbsp;&lt;/li&gt;&lt;li&gt;Data Normalization&lt;/li&gt;&lt;li&gt;Derived Column&lt;/li&gt;&lt;li&gt;Data enrichment&lt;/li&gt;&lt;/ul&gt;&lt;/div&gt;&lt;div&gt;Data Model :None&lt;/div&gt;" style="text;html=1;whiteSpace=wrap;strokeColor=none;fillColor=none;align=left;verticalAlign=middle;rounded=0;" vertex="1" parent="1">
          <mxGeometry x="483.75" y="330" width="142.5" height="340" as="geometry" />
        </mxCell>
        <mxCell id="MVucZP5u_rI3VgIbi9NU-44" value="Object Type: Views&lt;div&gt;&lt;br&gt;&lt;div&gt;No Load&lt;/div&gt;&lt;div&gt;&lt;br&gt;&lt;/div&gt;&lt;div&gt;&lt;div&gt;Transformation:&lt;/div&gt;&lt;/div&gt;&lt;/div&gt;&lt;div&gt;&lt;ul&gt;&lt;li&gt;Data Integration&lt;/li&gt;&lt;li&gt;Data Aggrigation&lt;/li&gt;&lt;li&gt;Business Logic&lt;/li&gt;&lt;/ul&gt;&lt;/div&gt;&lt;div&gt;Data Model&amp;nbsp;&lt;/div&gt;&lt;div&gt;&lt;ul&gt;&lt;li&gt;Star Schema&lt;/li&gt;&lt;li&gt;Flat Table&lt;/li&gt;&lt;li&gt;Aggregated Table&lt;/li&gt;&lt;/ul&gt;&lt;/div&gt;" style="text;html=1;whiteSpace=wrap;strokeColor=none;fillColor=none;align=left;verticalAlign=middle;rounded=0;" vertex="1" parent="1">
          <mxGeometry x="657.5" y="310" width="142.5" height="340" as="geometry" />
        </mxCell>
        <mxCell id="MVucZP5u_rI3VgIbi9NU-45" value="" style="shape=singleArrow;whiteSpace=wrap;html=1;fillColor=#dae8fc;strokeColor=#6c8ebf;" vertex="1" parent="1">
          <mxGeometry x="220" y="260" width="70" height="30" as="geometry" />
        </mxCell>
        <mxCell id="MVucZP5u_rI3VgIbi9NU-47" value="" style="shape=singleArrow;whiteSpace=wrap;html=1;fillColor=#dae8fc;strokeColor=#6c8ebf;" vertex="1" parent="1">
          <mxGeometry x="830" y="245" width="60" height="30" as="geometry" />
        </mxCell>
        <mxCell id="MVucZP5u_rI3VgIbi9NU-48" value="" style="shape=singleArrow;whiteSpace=wrap;html=1;fillColor=#dae8fc;strokeColor=#6c8ebf;" vertex="1" parent="1">
          <mxGeometry x="626.25" y="252.5" width="30" height="15" as="geometry" />
        </mxCell>
        <mxCell id="MVucZP5u_rI3VgIbi9NU-49" value="" style="shape=singleArrow;whiteSpace=wrap;html=1;fillColor=#dae8fc;strokeColor=#6c8ebf;" vertex="1" parent="1">
          <mxGeometry x="460" y="260" width="30" height="15" as="geometry" />
        </mxCell>
        <mxCell id="MVucZP5u_rI3VgIbi9NU-60" value="" style="image;html=1;image=img/lib/clip_art/finance/Graph_128x128.png" vertex="1" parent="1">
          <mxGeometry x="900" y="180" width="50" height="50" as="geometry" />
        </mxCell>
        <mxCell id="MVucZP5u_rI3VgIbi9NU-61" value="" style="shape=image;html=1;verticalAlign=top;verticalLabelPosition=bottom;labelBackgroundColor=#ffffff;imageAspect=0;aspect=fixed;image=https://icons.diagrams.net/icon-cache1/Online_Marketing_Hand_Drawn_vol_1-2932/business__chart__onlinechart__report__graph__reporting__data-1484.svg" vertex="1" parent="1">
          <mxGeometry x="960" y="180" width="52" height="52" as="geometry" />
        </mxCell>
        <mxCell id="MVucZP5u_rI3VgIbi9NU-62" value="BI &amp;amp; Reporting" style="text;html=1;whiteSpace=wrap;strokeColor=none;fillColor=none;align=center;verticalAlign=middle;rounded=0;" vertex="1" parent="1">
          <mxGeometry x="912.5" y="237.5" width="85" height="30" as="geometry" />
        </mxCell>
        <mxCell id="MVucZP5u_rI3VgIbi9NU-63" value="" style="sketch=0;html=1;aspect=fixed;strokeColor=none;shadow=0;fillColor=#3B8DF1;verticalAlign=top;labelPosition=center;verticalLabelPosition=bottom;shape=mxgraph.gcp2.search" vertex="1" parent="1">
          <mxGeometry x="930" y="300.96" width="57.5" height="58.08" as="geometry" />
        </mxCell>
        <mxCell id="MVucZP5u_rI3VgIbi9NU-64" value="AD-HOC&lt;br&gt;SQL Quries" style="text;html=1;whiteSpace=wrap;strokeColor=none;fillColor=none;align=center;verticalAlign=middle;rounded=0;" vertex="1" parent="1">
          <mxGeometry x="916.25" y="370" width="85" height="30" as="geometry" />
        </mxCell>
        <mxCell id="MVucZP5u_rI3VgIbi9NU-65" value="" style="shape=image;verticalLabelPosition=bottom;labelBackgroundColor=default;verticalAlign=top;aspect=fixed;imageAspect=0;image=data:image/png,iVBORw0KGgoAAAANSUhEUgAAABAAAAAQCAYAAAAf8/9hAAAACXBIWXMAAAB2AAAAdgFOeyYIAAAAGXRFWHRTb2Z0d2FyZQB3d3cuaW5rc2NhcGUub3Jnm+48GgAAAyhJREFUOI1lk11sk3UUxp/zf9u+7epW1q1tXNj8WMSJFroLSEAUY4gaQ2KUZBiIYKJOYpZ54QVeGSFZIoLR6XYxhxcbicZoYuINEkJQMgtodG9bWGyri7hB1wKhH3Zt177/xwtlYfNcnZOcnIvf7zmCVXUha7+h2NjrXshPKFYc69SRQZuuVz2R4anVuwCgbjfR6JwnNr3wpudWYcCo1isCXCfMQJkPZP7i68fi09m9JNXqA1J+f+TZ+U1PdtRa27qgcQ4K94c3BscTVu6EAFa4N3QsbmUPU+S0aO5MueYT0/gjNfRw30+XpjOblKta+cybz70tGgURvFTt8H4b+7PQL8QpCppvWaMvNNnzkyD2Q1jKMv+BCXMibuUO2lAfKkeopevGfetfpmAbyHOqoqZqnqaPqKRDoaZ8cvFrt5H5VJFzoHRvWXpoc2J97ZENkeARKD4tAHD58pxf181RAKgrTDrczjLLtW0Q8Xe4fxjPVLc/AWIHgGw4EhwUEb0Col4y3yFZIjFlNLRvqbjmvEDuUUQp0NOXJNkOwWkRaUvEcq+tsFA9OvpV082FPhGcBJlsNHv2IbiYBOQ8dEMKsfcyPkn7oTGrqc+k1NWhozMnj8d/ze6IW9nDCiIE5F8lCkqR7QAry5q4VGrQ/eDyfKdCiiEAELMWhoXioaAIUeP1evusy8iNCHAt3Bs6FPsl94wYertA3Uvw+w2R0NgKBg5n/RCIHtFoaGG3qyW/heAVLWi+kfy8Rwx2QYuLpBneGBxfwYBjY0677twPRUvAtO276+OKz3tKRNkGahV/9bsZP35+UQRFgr/FZ67tfPfsWQcApNNpUzVyxfnW2eSAaLkCkcdNt37UVaoOCnBdw9QFbt5Vte/u1yKdQlWMIjWpAsVE3ModXPy75YxyoLG7GggNUcFH4gQz5eci3c3HST5GstYaGfhm0Vi7D4IJCFvb6Ttw05Hf/V+Q3lqGGo3OebweZz/dzgO2x7zqypdHQd291vjy+Zz9lFFD2yfhSPCLO0MEAI7bzdatnRUAwxeydl3B3sN8OaBQW/TqVFsnfn+lqXfkx/8/M/APlyt/A9KWdC0AAAAASUVORK5CYII=;" vertex="1" parent="1">
          <mxGeometry width="16" height="16" as="geometry" />
        </mxCell>
        <mxCell id="MVucZP5u_rI3VgIbi9NU-66" value="" style="shape=image;verticalLabelPosition=bottom;labelBackgroundColor=default;verticalAlign=top;aspect=fixed;imageAspect=0;image=data:image/png,iVBORw0KGgoAAAANSUhEUgAAABAAAAAQCAYAAAAf8/9hAAAACXBIWXMAAAB2AAAAdgFOeyYIAAAAGXRFWHRTb2Z0d2FyZQB3d3cuaW5rc2NhcGUub3Jnm+48GgAAAyhJREFUOI1lk11sk3UUxp/zf9u+7epW1q1tXNj8WMSJFroLSEAUY4gaQ2KUZBiIYKJOYpZ54QVeGSFZIoLR6XYxhxcbicZoYuINEkJQMgtodG9bWGyri7hB1wKhH3Zt177/xwtlYfNcnZOcnIvf7zmCVXUha7+h2NjrXshPKFYc69SRQZuuVz2R4anVuwCgbjfR6JwnNr3wpudWYcCo1isCXCfMQJkPZP7i68fi09m9JNXqA1J+f+TZ+U1PdtRa27qgcQ4K94c3BscTVu6EAFa4N3QsbmUPU+S0aO5MueYT0/gjNfRw30+XpjOblKta+cybz70tGgURvFTt8H4b+7PQL8QpCppvWaMvNNnzkyD2Q1jKMv+BCXMibuUO2lAfKkeopevGfetfpmAbyHOqoqZqnqaPqKRDoaZ8cvFrt5H5VJFzoHRvWXpoc2J97ZENkeARKD4tAHD58pxf181RAKgrTDrczjLLtW0Q8Xe4fxjPVLc/AWIHgGw4EhwUEb0Col4y3yFZIjFlNLRvqbjmvEDuUUQp0NOXJNkOwWkRaUvEcq+tsFA9OvpV082FPhGcBJlsNHv2IbiYBOQ8dEMKsfcyPkn7oTGrqc+k1NWhozMnj8d/ze6IW9nDCiIE5F8lCkqR7QAry5q4VGrQ/eDyfKdCiiEAELMWhoXioaAIUeP1evusy8iNCHAt3Bs6FPsl94wYertA3Uvw+w2R0NgKBg5n/RCIHtFoaGG3qyW/heAVLWi+kfy8Rwx2QYuLpBneGBxfwYBjY0677twPRUvAtO276+OKz3tKRNkGahV/9bsZP35+UQRFgr/FZ67tfPfsWQcApNNpUzVyxfnW2eSAaLkCkcdNt37UVaoOCnBdw9QFbt5Vte/u1yKdQlWMIjWpAsVE3ModXPy75YxyoLG7GggNUcFH4gQz5eci3c3HST5GstYaGfhm0Vi7D4IJCFvb6Ttw05Hf/V+Q3lqGGo3OebweZz/dzgO2x7zqypdHQd291vjy+Zz9lFFD2yfhSPCLO0MEAI7bzdatnRUAwxeydl3B3sN8OaBQW/TqVFsnfn+lqXfkx/8/M/APlyt/A9KWdC0AAAAASUVORK5CYII=;" vertex="1" parent="1">
          <mxGeometry width="16" height="16" as="geometry" />
        </mxCell>
        <mxCell id="MVucZP5u_rI3VgIbi9NU-67" value="" style="sketch=0;points=[[0,0,0],[0.25,0,0],[0.5,0,0],[0.75,0,0],[1,0,0],[0,1,0],[0.25,1,0],[0.5,1,0],[0.75,1,0],[1,1,0],[0,0.25,0],[0,0.5,0],[0,0.75,0],[1,0.25,0],[1,0.5,0],[1,0.75,0]];outlineConnect=0;fontColor=#232F3E;fillColor=#01A88D;strokeColor=#ffffff;dashed=0;verticalLabelPosition=bottom;verticalAlign=top;align=center;html=1;fontSize=12;fontStyle=0;aspect=fixed;shape=mxgraph.aws4.resourceIcon;resIcon=mxgraph.aws4.machine_learning;" vertex="1" parent="1">
          <mxGeometry x="933.75" y="440" width="50" height="50" as="geometry" />
        </mxCell>
        <mxCell id="MVucZP5u_rI3VgIbi9NU-68" value="Machine -Learning" style="text;html=1;whiteSpace=wrap;strokeColor=none;fillColor=none;align=center;verticalAlign=middle;rounded=0;" vertex="1" parent="1">
          <mxGeometry x="900" y="500" width="110" height="30" as="geometry" />
        </mxCell>
      </root>
    </mxGraphModel>
  </diagram>
</mxfile>
